<svg xmlns="http://www.w3.org/2000/svg" width="396" height="137.97" viewBox="0 0 250 87.1">
  <defs>
    <linearGradient id="gradient">
      <stop offset="0" stop-color="#9f00ff" />
      <stop offset="1" stop-color="#915eff" />
    </linearGradient>
  </defs>
  <rect width="100%" height="100%" fill="url(#backgroundGradient)" />
  <g transform="matrix(2.665245294570923,0,0,2.665245294570923,-5.330490029812389,-26.972282461184232)" fill="url(#gradient)">
    <path d="M14.24 38.8 c-0.08 0 -0.16 0 -0.24 -0.04 l-11.72 -6.36 c-0.16 -0.08 -0.28 -0.28 -0.28 -0.48 l0 -4.44 c0 -0.2 0.12 -0.36 0.28 -0.44 l11.72 -6.4 c0.16 -0.04 0.36 -0.04 0.52 0.04 c0.12 0.12 0.2 0.28 0.2 0.44 l0 3.92 c0 0.2 -0.12 0.4 -0.32 0.48 l-7.6 4.16 l7.64 4.24 c0.16 0.08 0.28 0.24 0.28 0.48 l0 3.88 c0 0.16 -0.08 0.36 -0.2 0.44 c-0.12 0.04 -0.2 0.08 -0.28 0.08 z M26.759999999999998 40 c-3.12 0 -5.8 -1.32 -7.92 -3.92 c-0.16 -0.16 -0.16 -0.4 -0.04 -0.6 l2.4 -3.84 c0.08 -0.12 0.24 -0.24 0.4 -0.24 s0.32 0.04 0.4 0.16 c0.76 0.84 1.56 1.48 2.36 1.88 c0.76 0.44 1.48 0.64 2.12 0.64 c0.76 0 1.28 -0.2 1.68 -0.64 c0.4 -0.48 0.6 -1.12 0.6 -2 l0 -2.6 c-0.04 0 -0.04 0 -0.04 0.04 l0 -13.6 c0 -0.28 0.24 -0.52 0.52 -0.52 l5.24 0 c0.28 0 0.52 0.24 0.52 0.52 l0 16.28 c0 2.64 -0.76 4.72 -2.2 6.2 c-1.48 1.48 -3.48 2.24 -6.04 2.24 z M49.68 40.24 c-1.92 0 -3.84 -0.36 -5.68 -1.08 c-1.84 -0.68 -3.48 -1.68 -4.84 -2.88 c-0.16 -0.16 -0.2 -0.4 -0.12 -0.6 l1.4 -4.76 c0.08 -0.16 0.2 -0.28 0.36 -0.28 c0.16 -0.04 0.32 0 0.44 0.12 c2.12 2 4.52 3.8 7.52 3.96 c0.8 0.04 1.68 0.08 2.44 -0.16 c2.36 -0.76 1.36 -3.16 -0.4 -3.88 c-0.6 -0.24 -1.44 -0.52 -2.52 -0.84 c-1.6 -0.44 -2.92 -0.92 -3.92 -1.4 c-1.08 -0.48 -2 -1.24 -2.8 -2.24 c-0.76 -1.04 -1.16 -2.4 -1.16 -4.04 c0 -1.56 0.4 -2.92 1.2 -4.08 s1.92 -2.08 3.32 -2.68 s3.04 -0.92 4.88 -0.92 c1.64 0 3.24 0.24 4.84 0.76 c1.56 0.48 2.96 1.16 4.2 1.96 c0.2 0.16 0.28 0.4 0.16 0.64 l-1.32 4.48 c-0.04 0.16 -0.16 0.24 -0.32 0.28 c-0.12 0.04 -0.28 0.04 -0.4 -0.04 c-1.8 -1.12 -3.6 -2.48 -5.72 -2.76 c-1.4 -0.2 -3.52 -0.12 -4 1.56 c-0.6 2.16 2.56 2.72 4 3.16 c1.6 0.48 2.92 0.96 3.96 1.44 c1.08 0.52 2.04 1.32 2.8 2.32 c0.8 1.04 1.2 2.44 1.2 4.12 c0 1.64 -0.44 3.04 -1.28 4.24 c-0.8 1.2 -1.96 2.08 -3.4 2.72 c-1.44 0.56 -3.04 0.88 -4.84 0.88 z M63.720000000000006 42.8 c-0.16 0 -0.32 -0.08 -0.44 -0.2 c-0.08 -0.16 -0.12 -0.32 -0.04 -0.48 l10.56 -31.64 c0.08 -0.2 0.28 -0.36 0.52 -0.36 l4.24 0 c0.28 0 0.52 0.24 0.52 0.52 c0 0.08 -0.04 0.16 -0.08 0.24 l-10.52 31.56 c-0.08 0.2 -0.28 0.36 -0.48 0.36 l-4.28 0 z M83.56 38.8 c-0.08 0 -0.16 -0.04 -0.28 -0.08 c-0.12 -0.08 -0.2 -0.28 -0.2 -0.44 l0 -3.88 c0 -0.24 0.12 -0.4 0.28 -0.48 l7.64 -4.24 l-7.6 -4.16 c-0.2 -0.08 -0.32 -0.28 -0.32 -0.48 l0 -3.92 c0 -0.16 0.08 -0.32 0.2 -0.44 c0.16 -0.08 0.36 -0.08 0.52 -0.04 l11.72 6.4 c0.16 0.08 0.28 0.24 0.28 0.44 l0 4.44 c0 0.2 -0.12 0.4 -0.28 0.48 l-11.72 6.36 c-0.08 0.04 -0.16 0.04 -0.24 0.04 z"></path>
  </g>
</svg>
