{
	"asset":{
		"generator":"Khronos glTF Blender I/O v4.3.47",
		"version":"2.0"
	},
	"scene":0,
	"scenes":[
		{
			"name":"Scene",
			"nodes":[
				0
			]
		}
	],
	"nodes":[
		{
			"mesh":0,
			"name":"Curve.001",
			"scale":[
				1.9424009323120117,
				1.9424009323120117,
				1.9424009323120117
			]
		}
	],
	"materials":[
		{
			"doubleSided":true,
			"name":"SVGMat.010",
			"pbrMetallicRoughness":{
				"baseColorFactor":[
					0.34670165181159973,
					0,
					1,
					1
				],
				"metallicFactor":0,
				"roughnessFactor":0.4000000059604645
			}
		}
	],
	"meshes":[
		{
			"name":"Curve.004",
			"primitives":[
				{
					"attributes":{
						"POSITION":0,
						"NORMAL":1,
						"TEXCOORD_0":2
					},
					"indices":3,
					"material":0
				}
			]
		}
	],
	"accessors":[
		{
			"bufferView":0,
			"componentType":5126,
			"count":4311,
			"max":[
				0.11176228523254395,
				0.004999999888241291,
				6.034970283508301e-07
			],
			"min":[
				2.3283064365386963e-10,
				-0.004999999888241291,
				-0.038929250091314316
			],
			"type":"VEC3"
		},
		{
			"bufferView":1,
			"componentType":5126,
			"count":4311,
			"type":"VEC3"
		},
		{
			"bufferView":2,
			"componentType":5126,
			"count":4311,
			"type":"VEC2"
		},
		{
			"bufferView":3,
			"componentType":5123,
			"count":12780,
			"type":"SCALAR"
		}
	],
	"bufferViews":[
		{
			"buffer":0,
			"byteLength":51732,
			"byteOffset":0,
			"target":34962
		},
		{
			"buffer":0,
			"byteLength":51732,
			"byteOffset":51732,
			"target":34962
		},
		{
			"buffer":0,
			"byteLength":34488,
			"byteOffset":103464,
			"target":34962
		},
		{
			"buffer":0,
			"byteLength":25560,
			"byteOffset":137952,
			"target":34963
		}
	],
	"buffers":[
		{
			"byteLength":163512,
			"uri":"logo.bin"
		}
	]
}
