{
	"asset":{
		"generator":"Khronos glTF Blender I/O v4.3.47",
		"version":"2.0"
	},
	"scene":0,
	"scenes":[
		{
			"name":"Scene",
			"nodes":[
				0,
				1,
				2
			]
		}
	],
	"nodes":[
		{
			"name":"Scene Collection"
		},
		{
			"name":"logo.svg"
		},
		{
			"mesh":0,
			"name":"Curve.001",
			"rotation":[
				0.7098052501678467,
				-0.0069665368646383286,
				0.0035597558598965406,
				0.7043545842170715
			],
			"translation":[
				-0.054210055619478226,
				-0.016581768169999123,
				-0.000919475220143795
			]
		}
	],
	"materials":[
		{
			"doubleSided":true,
			"name":"SVGMat",
			"pbrMetallicRoughness":{
				"baseColorFactor":[
					0.34670165181159973,
					0,
					1,
					1
				],
				"metallicFactor":0,
				"roughnessFactor":0.4000000059604645
			}
		}
	],
	"meshes":[
		{
			"name":"Curve.001",
			"primitives":[
				{
					"attributes":{
						"POSITION":0,
						"NORMAL":1,
						"TEXCOORD_0":2,
						"TANGENT":3
					},
					"indices":4,
					"material":0
				},
				{
					"attributes":{
						"POSITION":5
					},
					"indices":6,
					"material":0,
					"mode":1
				}
			]
		}
	],
	"accessors":[
		{
			"bufferView":0,
			"componentType":5126,
			"count":5697,
			"max":[
				0.11176228523254395,
				0.009999999776482582,
				6.034970283508301e-07
			],
			"min":[
				2.3283064365386963e-10,
				-0.009999999776482582,
				-0.038929250091314316
			],
			"type":"VEC3"
		},
		{
			"bufferView":1,
			"componentType":5126,
			"count":5697,
			"type":"VEC3"
		},
		{
			"bufferView":2,
			"componentType":5126,
			"count":5697,
			"type":"VEC2"
		},
		{
			"bufferView":3,
			"componentType":5126,
			"count":5697,
			"type":"VEC4"
		},
		{
			"bufferView":4,
			"componentType":5123,
			"count":17616,
			"type":"SCALAR"
		},
		{
			"bufferView":5,
			"componentType":5126,
			"count":238,
			"max":[
				0.11176228523254395,
				0.009999999776482582,
				6.034970283508301e-07
			],
			"min":[
				1.147389139077859e-05,
				-0.009999999776482582,
				-0.03892536833882332
			],
			"type":"VEC3"
		},
		{
			"bufferView":6,
			"componentType":5123,
			"count":238,
			"type":"SCALAR"
		}
	],
	"bufferViews":[
		{
			"buffer":0,
			"byteLength":68364,
			"byteOffset":0,
			"target":34962
		},
		{
			"buffer":0,
			"byteLength":68364,
			"byteOffset":68364,
			"target":34962
		},
		{
			"buffer":0,
			"byteLength":45576,
			"byteOffset":136728,
			"target":34962
		},
		{
			"buffer":0,
			"byteLength":91152,
			"byteOffset":182304,
			"target":34962
		},
		{
			"buffer":0,
			"byteLength":35232,
			"byteOffset":273456,
			"target":34963
		},
		{
			"buffer":0,
			"byteLength":2856,
			"byteOffset":308688,
			"target":34962
		},
		{
			"buffer":0,
			"byteLength":476,
			"byteOffset":311544,
			"target":34963
		}
	],
	"buffers":[
		{
			"byteLength":312020,
			"uri":"scene.bin"
		}
	]
}
